<?xml version="1.0" encoding="UTF-8" standalone="no"?>
<svg
   xmlns:dc="http://purl.org/dc/elements/1.1/"
   xmlns:cc="http://creativecommons.org/ns#"
   xmlns:rdf="http://www.w3.org/1999/02/22-rdf-syntax-ns#"
   xmlns:svg="http://www.w3.org/2000/svg"
   xmlns="http://www.w3.org/2000/svg"
   xmlns:sodipodi="http://sodipodi.sourceforge.net/DTD/sodipodi-0.dtd"
   xmlns:inkscape="http://www.inkscape.org/namespaces/inkscape"
   version="1.1"
   viewBox="0 0 95.077881 95.077881"
   stroke-miterlimit="10"
   style="fill:none;stroke:none;stroke-miterlimit:10"
   x="0px"
   y="0px"
   id="svg2"
   inkscape:version="0.91 r13725"
   sodipodi:docname="logo-white.svg"
   width="95.077881"
   height="95.077881">
  <metadata
     id="metadata18">
    <rdf:RDF>
      <cc:Work
         rdf:about="">
        <dc:format>image/svg+xml</dc:format>
        <dc:type
           rdf:resource="http://purl.org/dc/dcmitype/StillImage" />
        <dc:title></dc:title>
      </cc:Work>
    </rdf:RDF>
  </metadata>
  <defs
     id="defs16" />
  <sodipodi:namedview
     pagecolor="#646464"
     bordercolor="#666666"
     borderopacity="1"
     objecttolerance="10"
     gridtolerance="10"
     guidetolerance="10"
     inkscape:pageopacity="0"
     inkscape:pageshadow="2"
     inkscape:window-width="1378"
     inkscape:window-height="845"
     id="namedview14"
     showgrid="false"
     fit-margin-top="0"
     fit-margin-left="0"
     fit-margin-right="0"
     fit-margin-bottom="0"
     inkscape:zoom="1.888"
     inkscape:cx="-29.276001"
     inkscape:cy="36.063565"
     inkscape:window-x="0"
     inkscape:window-y="0"
     inkscape:window-maximized="0"
     inkscape:current-layer="svg2" />
  <clipPath
     id="clipPath4">
    <path
       d="m 0,0 415.74802,0 0,415.74802 -415.74802,0 z"
       style="clip-rule:nonzero"
       id="path6"
       inkscape:connector-curvature="0" />
  </clipPath>
  <path
     style="color:#000000;font-style:normal;font-variant:normal;font-weight:normal;font-stretch:normal;font-size:medium;line-height:normal;font-family:sans-serif;text-indent:0;text-align:start;text-decoration:none;text-decoration-line:none;text-decoration-style:solid;text-decoration-color:#000000;letter-spacing:normal;word-spacing:normal;text-transform:none;direction:ltr;writing-mode:lr-tb;baseline-shift:baseline;text-anchor:start;white-space:normal;clip-rule:nonzero;display:inline;overflow:visible;visibility:visible;opacity:1;isolation:auto;mix-blend-mode:normal;color-interpolation:sRGB;color-interpolation-filters:linearRGB;solid-color:#000000;solid-opacity:1;fill:#fcffff;fill-opacity:1;fill-rule:evenodd;stroke:none;stroke-width:6.32688904;stroke-linecap:butt;stroke-linejoin:round;stroke-miterlimit:10;stroke-dasharray:none;stroke-dashoffset:0;stroke-opacity:1;color-rendering:auto;image-rendering:auto;shape-rendering:auto;text-rendering:auto;enable-background:accumulate"
     d="M 3.1634445,0 A 3.1637609,3.1637609 0 0 0 0,3.1634445 L 0,91.914435 a 3.1637609,3.1637609 0 0 0 3.1634445,3.163444 l 73.9578695,0 c 4.760904,0 9.33058,-1.893084 12.69703,-5.259535 3.366435,-3.366458 5.259535,-7.934575 5.259535,-12.695481 l 0,-73.9594185 A 3.1637609,3.1637609 0 0 0 91.914435,0 Z m 3.1634445,6.326889 25.645831,0 0,25.791033 -25.645831,0 z m 28.809276,0 25.089761,0 0,25.791033 -25.089761,0 z m 28.253206,0 25.361619,0 0,25.791033 -25.361619,0 z m -57.062482,28.954478 16.170943,0 0,53.469623 -16.170943,0 z m 19.334388,0 43.756867,0 0,53.469623 -43.756867,0 z m 46.920312,0 16.169401,0 0,41.841496 c 0,3.08534 -1.224293,6.040495 -3.405954,8.222173 -2.181646,2.181645 -5.138383,3.405954 -8.223722,3.405954 l -4.539725,0 z"
     id="path8"
     inkscape:connector-curvature="0" />
</svg>
